<?xml version="1.0" encoding="utf-8"?>
<!-- Generator: Adobe Illustrator 26.2.1, SVG Export Plug-In . SVG Version: 6.00 Build 0)  -->
<svg version="1.1" id="Layer_1" xmlns="http://www.w3.org/2000/svg" xmlns:xlink="http://www.w3.org/1999/xlink" x="0px" y="0px"
	 viewBox="0 0 530 530" style="enable-background:new 0 0 530 530;" xml:space="preserve">
<style type="text/css">
	.st0{fill:none;stroke:#000000;stroke-width:17;stroke-linecap:round;stroke-linejoin:round;stroke-miterlimit:10;}
</style>
<g id="wheat_beer_x2F_malt">
	<g>
		<path class="st0" d="M357.4,320.2c-9.7-7.8-22.1-12.5-35.5-12.5c-31.4,0-56.9,25.5-56.9,56.9c0-31.4-25.5-56.9-56.9-56.9
			c-13.4,0-25.8,4.7-35.5,12.5c0,0.6-0.1,1.2-0.1,1.8c0,51.1,41.4,92.5,92.5,92.5s92.5-41.4,92.5-92.5
			C357.5,321.3,357.4,320.7,357.4,320.2z"/>
		<path class="st0" d="M336.5,231.3c13.3-16,21-43.5,21-65.9c0-0.6-0.1-1.2-0.1-1.8c-9.7-7.8-22.1-12.5-35.5-12.5
			c-31.4,0-56.9,25.5-56.9,56.9c0-31.4-25.5-56.9-56.9-56.9c-13.4,0-25.8,4.7-35.5,12.5c0,0.6-0.1,1.2-0.1,1.8
			c0,22.5,8.3,49.7,21.7,65.8"/>
		<path class="st0" d="M333.5,308.9c13.3-16,24-42.8,24-65.2c0-0.6-0.1-1.2-0.1-1.8c-9.7-7.8-22.1-12.5-35.5-12.5
			c-31.4,0-56.9,25.5-56.9,56.9c0-31.4-25.5-56.9-56.9-56.9c-13.4,0-25.8,4.7-35.5,12.5c0,0.6-0.1,1.2-0.1,1.8
			c0,22.5,8.6,49.7,21.9,65.7"/>
		<path class="st0" d="M308.2,152.8c0-56.9-36.1-72.8-43.2-72.8s-43,16-43,72.9"/>
		<line class="st0" x1="265" y1="44.4" x2="265" y2="80"/>
		<line class="st0" x1="357.5" y1="115.6" x2="357.5" y2="165.4"/>
		<line class="st0" x1="172.5" y1="115.6" x2="172.5" y2="165.4"/>
		<line class="st0" x1="265" y1="414.4" x2="265" y2="450"/>
	</g>
	<path class="st0" d="M400.2,174.3c30.9,33.1,49.8,77.5,49.8,126.3c0,102.2-82.8,185-185,185s-185-82.8-185-185
		c0-48.8,18.9-93.2,49.8-126.3"/>
</g>
</svg>
