<svg xmlns="http://www.w3.org/2000/svg" viewBox="0 0 530 530"><g id="kultrun"><path d="M257.26,444.49c-2.2,0-6-1.92-6-4.29V89.8c0-2.37,3.78-4.29,6-4.29a4.14,4.14,0,0,1,4,4.29V440.2A4.14,4.14,0,0,1,257.26,444.49Z"/><path d="M272.74,444.49a4.14,4.14,0,0,1-4-4.29V89.8a4.14,4.14,0,0,1,4-4.29c2.2,0,6,1.92,6,4.29V440.2C278.72,442.57,274.94,444.49,272.74,444.49Z"/><path d="M440.2,261.24H89.8a4.14,4.14,0,0,1-4.29-4c0-2.2,1.92-6,4.29-6H440.2c2.37,0,4.29,3.78,4.29,6A4.14,4.14,0,0,1,440.2,261.24Z"/><path d="M440.2,278.72H89.8c-2.37,0-4.29-3.78-4.29-6a4.14,4.14,0,0,1,4.29-4H440.2a4.14,4.14,0,0,1,4.29,4C444.49,274.94,442.57,278.72,440.2,278.72Z"/><polygon points="379 260.73 371.78 253.83 426.54 196.2 433.75 203.1 379 260.73"/><polygon points="426.54 333.81 371.32 275.68 378.53 268.78 433.75 326.9 426.54 333.81"/><path d="M265,89.8A175.2,175.2,0,1,1,89.8,265,175.2,175.2,0,0,1,265,89.8m0-14.3A189.49,189.49,0,1,0,399,131,188.28,188.28,0,0,0,265,75.5Z"/><path d="M346.37,310.44,353.51,330l20.6.58a1.18,1.18,0,0,1,.71,2.09l-16.21,13,5.59,19.62a1.18,1.18,0,0,1-1.78,1.31l-17.16-11.23-17.17,11.23a1.18,1.18,0,0,1-1.78-1.31l5.6-19.62-16.21-13a1.18,1.18,0,0,1,.71-2.09L337,330l7.14-19.59A1.18,1.18,0,0,1,346.37,310.44Z"/><path d="M217.34,199.4a1.68,1.68,0,0,0-2.08-.09l-.54.38c-4.47,2.94-11.38,3.54-17.13,2a20.21,20.21,0,0,1-13.13-11,20.93,20.93,0,0,1,2.45-21.44c1.34-1.68,2.06-2.28,4-4.43a2,2,0,0,0,.67-2,1.66,1.66,0,0,0-1.75-1.1,27.76,27.76,0,1,0,27.94,39.67A1.69,1.69,0,0,0,217.34,199.4Z"/><path d="M194.17,332.27a14.69,14.69,0,1,1-20.77,0A14.68,14.68,0,0,1,194.17,332.27Z"/><path d="M183.4,346.05c-5.68-.59-17.71-5.47-21.18-14.57-1.5-4-2.57-11.12,4.68-17.38,1.45-1.26,4.86-2.46,4.92-.22,0,1.92-6.48,7.39-3.09,15.12,2,4.44,12.71,7.63,16.79,8.05C187.43,337.25,183.52,346.06,183.4,346.05Z"/><path d="M187.71,344.59c-2.31,5.21-10.68,15.15-20.4,15.63-4.22.21-11.37-1-15.08-9.82-.75-1.77-.84-5.38,1.3-4.74,1.85.55,5,8.44,13.44,7.6,4.82-.48,11.17-9.73,12.84-13.48C180.59,338,187.76,344.47,187.71,344.59Z"/><path d="M187,339.31c4.24,3.82,11.11,14.84,8.56,24.24-1.1,4.08-4.46,10.51-14,11.31-1.92.16-5.38-.87-4.11-2.71,1.09-1.58,9.58-2.18,11.38-10.43,1-4.74-5.8-13.63-8.85-16.37C178.52,344.06,186.87,339.23,187,339.31Z"/><path d="M182.09,338.12c4.94-2.86,17.55-6,25.69-.66,3.54,2.32,8.62,7.49,6.44,16.81-.44,1.87-2.49,4.85-3.85,3.07-1.17-1.53.89-9.79-6.4-14-4.19-2.44-14.76,1.31-18.31,3.36C184,347.61,182,338.18,182.09,338.12Z"/><path d="M179.68,343.23c-1.19-5.58-.27-18.53,7.32-24.64,3.29-2.65,9.78-5.88,18-.93,1.64,1,3.84,3.87,1.73,4.61-1.81.64-9-3.87-15.34,1.75-3.62,3.23-3.32,14.44-2.46,18.45C189.3,344.35,179.71,343.35,179.68,343.23Z"/><polygon points="151 269.27 158.22 276.17 103.46 333.81 96.25 326.9 151 269.27"/><polygon points="103.46 196.2 158.68 254.32 151.47 261.22 96.25 203.1 103.46 196.2"/><polygon points="269.27 379 276.17 371.78 333.8 426.54 326.9 433.75 269.27 379"/><polygon points="196.2 426.54 254.32 371.32 261.22 378.53 203.1 433.75 196.2 426.54"/><polygon points="260.73 151 253.83 158.22 196.2 103.46 203.1 96.25 260.73 151"/><polygon points="333.8 103.46 275.68 158.68 268.78 151.47 326.9 96.25 333.8 103.46"/><path d="M353.24,179.2a14.69,14.69,0,1,1-20.78,0A14.71,14.71,0,0,1,353.24,179.2Z"/><path d="M342.46,193c-5.68-.59-17.71-5.48-21.17-14.58-1.5-3.94-2.57-11.12,4.67-17.37,1.45-1.26,4.87-2.46,4.92-.23.05,1.93-6.48,7.4-3.08,15.13,1.95,4.44,12.71,7.62,16.78,8.05C346.5,184.19,342.58,193,342.46,193Z"/><path d="M346.78,191.52c-2.32,5.22-10.68,15.15-20.41,15.63-4.22.21-11.37-1-15.08-9.81-.75-1.77-.83-5.39,1.31-4.75,1.84.55,5,8.45,13.43,7.61,4.83-.49,11.18-9.73,12.84-13.48C339.65,185,346.83,191.41,346.78,191.52Z"/><path d="M346,186.25c4.25,3.81,11.11,14.84,8.57,24.23-1.11,4.08-4.46,10.51-14,11.32-1.91.16-5.38-.88-4.11-2.71,1.09-1.59,9.59-2.18,11.38-10.43,1-4.74-5.8-13.64-8.85-16.38C337.58,191,345.93,186.17,346,186.25Z"/><path d="M341.16,185.05c4.93-2.85,17.54-6,25.69-.65,3.54,2.31,8.62,7.49,6.43,16.81-.43,1.87-2.49,4.84-3.84,3.07-1.17-1.53.89-9.79-6.4-14.05-4.19-2.45-14.76,1.3-18.31,3.35C343.06,194.55,341.05,185.12,341.16,185.05Z"/><path d="M338.74,190.17c-1.19-5.59-.26-18.54,7.32-24.64,3.29-2.65,9.78-5.88,18-.93,1.65,1,3.84,3.87,1.74,4.61-1.82.64-9-3.87-15.34,1.74-3.62,3.23-3.32,14.45-2.47,18.45C348.36,191.28,338.77,190.29,338.74,190.17Z"/></g></svg>